<svg width="158" height="25" viewBox="0 0 158 25" fill="none" xmlns="http://www.w3.org/2000/svg">
<path d="M54.88 11.192C54.624 10.7227 54.272 10.3653 53.824 10.12C53.376 9.87467 52.8533 9.752 52.256 9.752C51.5947 9.752 51.008 9.90133 50.496 10.2C49.984 10.4987 49.584 10.9253 49.296 11.48C49.008 12.0347 48.864 12.6747 48.864 13.4C48.864 14.1467 49.008 14.7973 49.296 15.352C49.5947 15.9067 50.0053 16.3333 50.528 16.632C51.0507 16.9307 51.6587 17.08 52.352 17.08C53.2053 17.08 53.904 16.856 54.448 16.408C54.992 15.9493 55.3493 15.3147 55.52 14.504H51.68V12.792H57.728V14.744C57.5787 15.5227 57.2587 16.2427 56.768 16.904C56.2773 17.5653 55.6427 18.0987 54.864 18.504C54.096 18.8987 53.232 19.096 52.272 19.096C51.1947 19.096 50.2187 18.856 49.344 18.376C48.48 17.8853 47.7973 17.208 47.296 16.344C46.8053 15.48 46.56 14.4987 46.56 13.4C46.56 12.3013 46.8053 11.32 47.296 10.456C47.7973 9.58133 48.48 8.904 49.344 8.424C50.2187 7.93333 51.1893 7.688 52.256 7.688C53.5147 7.688 54.608 7.99733 55.536 8.616C56.464 9.224 57.104 10.0827 57.456 11.192H54.88ZM61.6253 11.512C61.9133 11.0427 62.2866 10.6747 62.7453 10.408C63.2146 10.1413 63.7479 10.008 64.3453 10.008V12.36H63.7533C63.0493 12.36 62.5159 12.5253 62.1533 12.856C61.8013 13.1867 61.6253 13.7627 61.6253 14.584V19H59.3853V10.136H61.6253V11.512ZM65.278 14.536C65.278 13.64 65.454 12.8453 65.806 12.152C66.1687 11.4587 66.654 10.9253 67.262 10.552C67.8807 10.1787 68.5687 9.992 69.326 9.992C69.9873 9.992 70.5633 10.1253 71.054 10.392C71.5553 10.6587 71.9553 10.9947 72.254 11.4V10.136H74.51V19H72.254V17.704C71.966 18.12 71.566 18.4667 71.054 18.744C70.5527 19.0107 69.9713 19.144 69.31 19.144C68.5633 19.144 67.8807 18.952 67.262 18.568C66.654 18.184 66.1687 17.6453 65.806 16.952C65.454 16.248 65.278 15.4427 65.278 14.536ZM72.254 14.568C72.254 14.024 72.1473 13.56 71.934 13.176C71.7207 12.7813 71.4327 12.4827 71.07 12.28C70.7073 12.0667 70.318 11.96 69.902 11.96C69.486 11.96 69.102 12.0613 68.75 12.264C68.398 12.4667 68.11 12.7653 67.886 13.16C67.6727 13.544 67.566 14.0027 67.566 14.536C67.566 15.0693 67.6727 15.5387 67.886 15.944C68.11 16.3387 68.398 16.6427 68.75 16.856C69.1127 17.0693 69.4967 17.176 69.902 17.176C70.318 17.176 70.7073 17.0747 71.07 16.872C71.4327 16.6587 71.7207 16.36 71.934 15.976C72.1473 15.5813 72.254 15.112 72.254 14.568ZM76.1217 14.536C76.1217 13.64 76.2977 12.8453 76.6497 12.152C77.0124 11.4587 77.5031 10.9253 78.1218 10.552C78.7404 10.1787 79.4284 9.992 80.1858 9.992C80.7618 9.992 81.3111 10.12 81.8338 10.376C82.3564 10.6213 82.7724 10.952 83.0818 11.368V7.16H85.3538V19H83.0818V17.688C82.8044 18.1253 82.4151 18.4773 81.9138 18.744C81.4124 19.0107 80.8311 19.144 80.1698 19.144C79.4231 19.144 78.7404 18.952 78.1218 18.568C77.5031 18.184 77.0124 17.6453 76.6497 16.952C76.2977 16.248 76.1217 15.4427 76.1217 14.536ZM83.0978 14.568C83.0978 14.024 82.9911 13.56 82.7778 13.176C82.5644 12.7813 82.2764 12.4827 81.9138 12.28C81.5511 12.0667 81.1618 11.96 80.7458 11.96C80.3298 11.96 79.9458 12.0613 79.5938 12.264C79.2418 12.4667 78.9538 12.7653 78.7298 13.16C78.5164 13.544 78.4098 14.0027 78.4098 14.536C78.4098 15.0693 78.5164 15.5387 78.7298 15.944C78.9538 16.3387 79.2418 16.6427 79.5938 16.856C79.9564 17.0693 80.3404 17.176 80.7458 17.176C81.1618 17.176 81.5511 17.0747 81.9138 16.872C82.2764 16.6587 82.5644 16.36 82.7778 15.976C82.9911 15.5813 83.0978 15.112 83.0978 14.568ZM88.6775 9.08C88.2828 9.08 87.9522 8.95733 87.6855 8.712C87.4295 8.456 87.3015 8.14133 87.3015 7.768C87.3015 7.39467 87.4295 7.08533 87.6855 6.84C87.9522 6.584 88.2828 6.456 88.6775 6.456C89.0722 6.456 89.3975 6.584 89.6535 6.84C89.9202 7.08533 90.0535 7.39467 90.0535 7.768C90.0535 8.14133 89.9202 8.456 89.6535 8.712C89.3975 8.95733 89.0722 9.08 88.6775 9.08ZM89.7815 10.136V19H87.5415V10.136H89.7815ZM100.235 14.376C100.235 14.696 100.213 14.984 100.171 15.24H93.6906C93.744 15.88 93.968 16.3813 94.3626 16.744C94.7573 17.1067 95.2426 17.288 95.8186 17.288C96.6506 17.288 97.2426 16.9307 97.5946 16.216H100.011C99.7546 17.0693 99.264 17.7733 98.5386 18.328C97.8133 18.872 96.9226 19.144 95.8666 19.144C95.0133 19.144 94.2453 18.9573 93.5626 18.584C92.8906 18.2 92.3626 17.6613 91.9786 16.968C91.6053 16.2747 91.4186 15.4747 91.4186 14.568C91.4186 13.6507 91.6053 12.8453 91.9786 12.152C92.352 11.4587 92.8746 10.9253 93.5466 10.552C94.2186 10.1787 94.992 9.992 95.8666 9.992C96.7093 9.992 97.4613 10.1733 98.1226 10.536C98.7946 10.8987 99.312 11.416 99.6746 12.088C100.048 12.7493 100.235 13.512 100.235 14.376ZM97.9146 13.736C97.904 13.16 97.696 12.7013 97.2906 12.36C96.8853 12.008 96.3893 11.832 95.8026 11.832C95.248 11.832 94.7786 12.0027 94.3946 12.344C94.0213 12.6747 93.792 13.1387 93.7066 13.736H97.9146ZM106.782 10.008C107.838 10.008 108.691 10.344 109.342 11.016C109.992 11.6773 110.318 12.6053 110.318 13.8V19H108.078V14.104C108.078 13.4 107.902 12.8613 107.55 12.488C107.198 12.104 106.718 11.912 106.11 11.912C105.491 11.912 105 12.104 104.638 12.488C104.286 12.8613 104.11 13.4 104.11 14.104V19H101.87V10.136H104.11V11.24C104.408 10.856 104.787 10.5573 105.246 10.344C105.715 10.12 106.227 10.008 106.782 10.008ZM115.056 11.976V16.264C115.056 16.5627 115.125 16.7813 115.264 16.92C115.413 17.048 115.658 17.112 116 17.112H117.04V19H115.632C113.744 19 112.8 18.0827 112.8 16.248V11.976H111.744V10.136H112.8V7.944H115.056V10.136H117.04V11.976H115.056ZM122.295 14.552C122.295 13.6667 122.476 12.8827 122.839 12.2C123.212 11.5173 123.714 10.9893 124.343 10.616C124.983 10.232 125.687 10.04 126.455 10.04C127.148 10.04 127.751 10.1787 128.263 10.456C128.786 10.7227 129.202 11.0587 129.511 11.464V10.184H131.351V19H129.511V17.688C129.202 18.104 128.78 18.4507 128.247 18.728C127.714 19.0053 127.106 19.144 126.423 19.144C125.666 19.144 124.972 18.952 124.343 18.568C123.714 18.1733 123.212 17.6293 122.839 16.936C122.476 16.232 122.295 15.4373 122.295 14.552ZM129.511 14.584C129.511 13.976 129.383 13.448 129.127 13C128.882 12.552 128.556 12.2107 128.151 11.976C127.746 11.7413 127.308 11.624 126.839 11.624C126.37 11.624 125.932 11.7413 125.527 11.976C125.122 12.2 124.791 12.536 124.535 12.984C124.29 13.4213 124.167 13.944 124.167 14.552C124.167 15.16 124.29 15.6933 124.535 16.152C124.791 16.6107 125.122 16.9627 125.527 17.208C125.943 17.4427 126.38 17.56 126.839 17.56C127.308 17.56 127.746 17.4427 128.151 17.208C128.556 16.9733 128.882 16.632 129.127 16.184C129.383 15.7253 129.511 15.192 129.511 14.584ZM135.571 11.496C135.88 11.0693 136.302 10.7227 136.835 10.456C137.379 10.1787 137.982 10.04 138.643 10.04C139.422 10.04 140.126 10.2267 140.755 10.6C141.384 10.9733 141.88 11.5067 142.243 12.2C142.606 12.8827 142.787 13.6667 142.787 14.552C142.787 15.4373 142.606 16.232 142.243 16.936C141.88 17.6293 141.379 18.1733 140.739 18.568C140.11 18.952 139.411 19.144 138.643 19.144C137.96 19.144 137.352 19.0107 136.819 18.744C136.296 18.4773 135.88 18.136 135.571 17.72V19H133.747V7.16H135.571V11.496ZM140.931 14.552C140.931 13.944 140.803 13.4213 140.547 12.984C140.302 12.536 139.971 12.2 139.555 11.976C139.15 11.7413 138.712 11.624 138.243 11.624C137.784 11.624 137.347 11.7413 136.931 11.976C136.526 12.2107 136.195 12.552 135.939 13C135.694 13.448 135.571 13.976 135.571 14.584C135.571 15.192 135.694 15.7253 135.939 16.184C136.195 16.632 136.526 16.9733 136.931 17.208C137.347 17.4427 137.784 17.56 138.243 17.56C138.712 17.56 139.15 17.4427 139.555 17.208C139.971 16.9627 140.302 16.6107 140.547 16.152C140.803 15.6933 140.931 15.16 140.931 14.552ZM146.415 7.16V19H144.591V7.16H146.415ZM156.889 14.376C156.889 14.7067 156.868 15.0053 156.825 15.272H150.089C150.143 15.976 150.404 16.5413 150.873 16.968C151.343 17.3947 151.919 17.608 152.601 17.608C153.583 17.608 154.276 17.1973 154.681 16.376H156.649C156.383 17.1867 155.897 17.8533 155.193 18.376C154.5 18.888 153.636 19.144 152.601 19.144C151.759 19.144 151.001 18.9573 150.329 18.584C149.668 18.2 149.145 17.6667 148.761 16.984C148.388 16.2907 148.201 15.4907 148.201 14.584C148.201 13.6773 148.383 12.8827 148.745 12.2C149.119 11.5067 149.636 10.9733 150.297 10.6C150.969 10.2267 151.737 10.04 152.601 10.04C153.433 10.04 154.175 10.2213 154.825 10.584C155.476 10.9467 155.983 11.4587 156.345 12.12C156.708 12.7707 156.889 13.5227 156.889 14.376ZM154.985 13.8C154.975 13.128 154.735 12.5893 154.265 12.184C153.796 11.7787 153.215 11.576 152.521 11.576C151.892 11.576 151.353 11.7787 150.905 12.184C150.457 12.5787 150.191 13.1173 150.105 13.8H154.985Z" fill="white"/>
<path d="M24.575 2H12.5C6.70101 2 2 6.70101 2 12.5V12.5C2 18.299 6.70101 23 12.5 23H31.1375C35.0518 23 38.225 19.8268 38.225 15.9125V15.9125C38.225 11.9982 35.0518 8.825 31.1375 8.825H16.175C14.1454 8.825 12.5 10.4704 12.5 12.5V12.5C12.5 14.5296 14.1454 16.175 16.175 16.175H31.4" stroke="white" stroke-width="3" stroke-linecap="round"/>
</svg>
